<svg width="27" height="25" viewBox="0 0 27 25" fill="none" xmlns="http://www.w3.org/2000/svg">
<path d="M24 13.2627L14 23.1667L3.99999 13.2627C3.3404 12.6208 2.82085 11.8494 2.47406 10.9968C2.12727 10.1443 1.96074 9.22927 1.98498 8.30924C2.00921 7.38922 2.22368 6.48418 2.61487 5.65111C3.00606 4.81805 3.56551 4.075 4.25798 3.46877C4.95044 2.86254 5.76093 2.40625 6.63841 2.12864C7.51588 1.85103 8.44134 1.75811 9.35649 1.85573C10.2716 1.95336 11.1567 2.23941 11.9558 2.69587C12.755 3.15234 13.451 3.76933 14 4.508C14.5514 3.7747 15.2482 3.16309 16.0468 2.71147C16.8454 2.25985 17.7287 1.97793 18.6412 1.88336C19.5538 1.78879 20.4761 1.8836 21.3504 2.16186C22.2246 2.44011 23.032 2.89583 23.7221 3.50048C24.4121 4.10514 24.9699 4.84571 25.3606 5.67586C25.7512 6.506 25.9663 7.40784 25.9924 8.32494C26.0185 9.24204 25.855 10.1547 25.5122 11.0057C25.1693 11.8567 24.6545 12.6278 24 13.2707" stroke="#303030" stroke-width="2" stroke-linecap="round" stroke-linejoin="round"/>
</svg>
